<?xml version="1.0" encoding="UTF-8"?><svg id="Layer_2" xmlns="http://www.w3.org/2000/svg" viewBox="0 0 63.43 63.43"><defs><style>.cls-1{fill:#231f20;}.cls-1,.cls-2{stroke-width:0px;}.cls-3{fill:#fff;stroke:#231f20;stroke-miterlimit:10;stroke-width:2px;}.cls-2{fill:#1a87c5;}</style></defs><g id="Layer_1-2"><circle class="cls-3" cx="31.71" cy="31.71" r="30.71"/><path class="cls-1" d="M18.64,27.09c12.31-.26,24.61-.53,36.92-.79,1.9-.04,3.52-1.59,3.52-3.52s-1.61-3.57-3.52-3.52c-12.31.26-24.61.53-36.92.79-1.9.04-3.52,1.59-3.52,3.52s1.61,3.57,3.52,3.52h0Z"/><path class="cls-1" d="M35.62,21.55v-8.87c0-1.31-1.15-2.56-2.5-2.5s-2.5,1.1-2.5,2.5v8.87c0,1.31,1.15,2.56,2.5,2.5s2.5-1.1,2.5-2.5h0Z"/><path class="cls-1" d="M31.47,14.57h9.81c-.28-1.01-.55-2.03-.83-3.06-.66.5-1.09,1.15-.83,2.02.19.66.74,1.1,1.38,1.29,1.16.36,2.68,0,3.16-1.22,1.07-2.75-3.49-4.19-4.89-2.02-.48.75-.15,1.82.59,2.26.8.47,1.77.16,2.26-.59l.04-.07-.59.59c.18-.13-.08,0-.13.03-.08.08.22,0,0,0,.19,0,.14.1.01,0s-.34-.31-.37-.48v-.88c.16-.47.43-.73.81-.76.13-.01.11-.02-.05-.01l.17.02c-.3-.1-.17-.01.38.25l.42.73-.02-.05-.17,1.27.02-.05-.59.59.07-.05c.59-.45.97-1.09.76-1.86-.19-.7-.87-1.21-1.59-1.21h-9.81c-.89-.02-1.65.74-1.65,1.63s.75,1.65,1.65,1.65h0Z"/><path class="cls-1" d="M34.85,11.38c-3.27,0-6.54,0-9.81.01-.72,0-1.4.51-1.59,1.21-.21.76.17,1.41.76,1.86l.07.05-.59-.59.02.05-.17-1.27-.02.05.42-.73c.53-.25.68-.34.44-.27-.11.03-.08.03.11,0h-.14c.42.02.71.28.89.77v.88c-.02.14-.19.34-.3.42-.13.1-.32.08-.06.07-.2.01-.02-.02.05.01-.05-.02-.39-.18-.19-.04l-.59-.59.04.07c.48.75,1.46,1.05,2.26.59.74-.44,1.08-1.5.59-2.26-1.39-2.17-5.96-.72-4.89,2.02.47,1.21,1.94,1.57,3.1,1.24.66-.19,1.24-.63,1.44-1.31.26-.87-.18-1.52-.83-2.02l-.83,3.07c3.27,0,6.54,0,9.81-.01.89,0,1.65-.76,1.65-1.65s-.75-1.65-1.65-1.65h0Z"/><path class="cls-1" d="M20.15,24.69c-.23.76-.22,1.62-.01,2.38s.63,1.48,1.2,2c.47.42,1.11.76,1.77.73l.66-.09c.42-.12.79-.33,1.1-.64.9-.78,1.81-1.57,2.71-2.35.43-.37.9-.72,1.29-1.13.83-.87,1.07-2.24.43-3.29-.36-.58-.91-.98-1.56-1.19-.24-.08-.49-.11-.73-.09-.44.02-.94.11-1.3.37-.29.16-.53.37-.7.64-.22.24-.37.52-.45.85-.16.6-.09,1.4.25,1.93s.86,1,1.49,1.15,1.4.14,1.93-.25l.04-.03-1.26.34h.05c-.22-.03-.44-.06-.66-.09l.05.02-1.1-.64.04.03-.39-.51.03.04-.25-.6v.05c.01-.44.01-.89.01-1.33v.06c.07-.2.16-.4.24-.6-.01.04-.04.07-.06.11l.39-.51c-.3.31-.66.58-.98.86s-.66.58-1,.86c-.68.59-1.35,1.17-2.03,1.76h3.54c-.08-.08-.16-.15-.23-.24l.39.51c-.09-.13-.17-.26-.24-.4l.25.6c-.07-.17-.12-.33-.14-.51l.09.66c-.02-.16-.02-.31,0-.46l-.09.66c.02-.11.04-.22.07-.32.18-.61.07-1.38-.25-1.93-.3-.52-.9-1.01-1.49-1.15-.64-.15-1.36-.11-1.93.25s-.96.85-1.15,1.49h0Z"/><path class="cls-2" d="M21.45,31.36s-3.24,2-3.72,3.74.67,2.82,1.5,3.24c.94.48,3.3.08,3.8-1.52,0,0,.54-1.26-.76-5.03,0,0-.21-.61-.82-.43Z"/><path class="cls-2" d="M16.63,36.82s-1.74.58-2.16,1.34,0,1.4.34,1.69c.39.33,1.54.4,1.95-.29,0,0,.39-.53.2-2.44,0,0-.03-.31-.34-.29Z"/><path class="cls-2" d="M29.46,41.86s0,1.83.59,2.47,1.32.44,1.71.21c.43-.26.87-1.33.34-1.94,0,0-.38-.54-2.25-.97,0,0-.3-.07-.38.23Z"/><path class="cls-2" d="M18.69,30.19s-1.74.58-2.16,1.34,0,1.4.34,1.69c.39.33,1.54.4,1.95-.29,0,0,.39-.53.2-2.44,0,0-.03-.31-.34-.29Z"/><path class="cls-2" d="M25.01,32.52s-1.17,2.27-.85,3.43,1.36,1.39,1.98,1.35c.7-.05,1.92-1.09,1.66-2.18,0,0-.12-.91-2.17-2.63,0,0-.33-.28-.62.04Z"/><path class="cls-2" d="M22.65,46.48s-1.17,2.27-.85,3.43,1.36,1.39,1.98,1.35c.7-.05,1.92-1.09,1.66-2.18,0,0-.12-.91-2.17-2.63,0,0-.33-.28-.62.04Z"/><path class="cls-2" d="M26.04,44.43s-1.17,2.27-.85,3.43,1.36,1.39,1.98,1.35c.7-.05,1.92-1.09,1.66-2.18,0,0-.12-.91-2.17-2.63,0,0-.33-.28-.62.04Z"/><path class="cls-2" d="M21.09,44s-.34.49-.27.73.34.27.51.26c.19-.02.53-.26.47-.48,0,0-.02-.19-.54-.52,0,0-.08-.05-.17.02Z"/><path class="cls-2" d="M27.52,42.95s-.34.49-.27.73.34.27.51.26c.19-.02.53-.26.47-.48,0,0-.02-.19-.54-.52,0,0-.08-.05-.17.02Z"/><path class="cls-2" d="M27.74,38.17s-.34.49-.27.73.34.27.51.26c.19-.02.53-.26.47-.48,0,0-.02-.19-.54-.52,0,0-.08-.05-.17.02Z"/><path class="cls-2" d="M26.02,30.78s-.34.49-.27.73.34.27.51.26c.19-.02.53-.26.47-.48,0,0-.02-.19-.54-.52,0,0-.08-.05-.17.02Z"/><path class="cls-2" d="M18.64,39.28s-2.1,1.45-2.36,2.63.55,1.86,1.12,2.12c.65.29,2.21-.06,2.49-1.15,0,0,.32-.86-.68-3.34,0,0-.16-.4-.57-.26Z"/><path class="cls-2" d="M14.61,40.86s-2.1,1.45-2.36,2.63.55,1.86,1.12,2.12c.65.29,2.21-.06,2.49-1.15,0,0,.32-.86-.68-3.34,0,0-.16-.4-.57-.26Z"/><path class="cls-2" d="M25.58,38.51s-.87,1.68-.63,2.55,1.01,1.03,1.47,1c.52-.04,1.43-.81,1.23-1.62,0,0-.09-.68-1.61-1.95,0,0-.25-.21-.46.03Z"/><path class="cls-2" d="M30.31,45.61s-.87,1.68-.63,2.55,1.01,1.03,1.47,1c.52-.04,1.43-.81,1.23-1.62,0,0-.09-.68-1.61-1.95,0,0-.25-.21-.46.03Z"/><path class="cls-2" d="M21.84,39.19s-.87,1.68-.63,2.55,1.01,1.03,1.47,1c.52-.04,1.43-.81,1.23-1.62,0,0-.09-.68-1.61-1.95,0,0-.25-.21-.46.03Z"/><path class="cls-2" d="M28.08,32.23s-.53,1.82-.13,2.62,1.19.82,1.63.7c.51-.13,1.25-1.07.9-1.83,0,0-.22-.65-1.95-1.61,0,0-.28-.16-.45.12Z"/><path class="cls-2" d="M29.89,36.89s-.53,1.82-.13,2.62,1.19.82,1.63.7c.51-.13,1.25-1.07.9-1.83,0,0-.22-.65-1.95-1.61,0,0-.28-.16-.45.12Z"/><path class="cls-2" d="M19.08,44.39s-.87,1.68-.63,2.55,1.01,1.03,1.47,1c.52-.04,1.43-.81,1.23-1.62,0,0-.09-.68-1.61-1.95,0,0-.25-.21-.46.03Z"/><path class="cls-2" d="M24.37,42.63s-.53,1.03-.39,1.56.62.63.9.61c.32-.02.88-.5.76-.99,0,0-.06-.41-.99-1.2,0,0-.15-.13-.28.02Z"/></g></svg>