<?xml version="1.0" encoding="UTF-8"?><svg id="Layer_2" xmlns="http://www.w3.org/2000/svg" viewBox="0 0 63.43 63.43"><defs><style>.cls-1{fill:#facf2e;}.cls-1,.cls-2,.cls-3{stroke-width:0px;}.cls-2{fill:#000;}.cls-4{fill:#fff;stroke:#231f20;stroke-miterlimit:10;stroke-width:2px;}.cls-3{fill:#1a87c5;}</style></defs><g id="Layer_1-2"><circle class="cls-4" cx="31.71" cy="31.71" r="30.71"/><path class="cls-3" d="M29.98,14.01c-2.53-1.07-5.73-.44-7.96,1.03s-3.66,3.61-4.81,5.78c-2.09,3.93-3.49,8.12-4.13,12.39-.48,3.21-.49,6.62,1.29,9.49,1.21,1.95,3.18,3.51,5.36,4.73,4.48,2.5,10.11,3.65,15.39,2.79s10.12-3.81,12.33-7.92c1.12-2.09,1.57-4.4,1.59-6.69.06-5.87-2.66-11.72-7.44-16.01s-11.58-6.96-18.58-7.31"/><path class="cls-2" d="M31.57,13.46c-3.65-1.42-8.29-.26-11.39,1.98-3.57,2.57-5.58,7.09-7,11.12s-2.65,8.87-1.8,13.17,4.42,7.21,8.26,9.01c7.76,3.62,17.63,3.16,24.77-1.73,3.36-2.31,5.59-5.63,6.16-9.7s-.44-8.49-2.47-12.15c-4.76-8.58-14.49-12.96-23.97-13.49-.73-.04-1.76.21-2.36.63-.5.35-.5.58.17.62,7.43.42,15.07,3.52,20.04,9.19,4.63,5.28,7.35,13.7,3.94,20.31s-11.75,8.46-18.67,6.78c-3.65-.88-7.5-2.65-10.07-5.47s-2.97-6.54-2.53-10.17c.56-4.62,2.09-9.15,4.3-13.23,1.89-3.49,5.02-7.5,9.46-5.77.64.25,1.52-.03,2.14-.25.12-.04,1.49-.67,1.02-.85h0Z"/><path class="cls-1" d="M17.62,36.48c3.5,1.4,6.64,3.57,9.1,6.43.64.74,2.35.27,3.13.09.88-.2,3.1-.63,3.5-1.61,3.45-8.56,8.79-16.28,15.65-22.45,1.09-.98-.98-.94-1.52-.88-1.4.15-3.39.55-4.49,1.54-7.08,6.36-12.65,14.23-16.22,23.05l6.63-1.53c-2.6-3.02-5.76-5.35-9.46-6.84-1.27-.51-3.05.06-4.28.49-.25.09-2.98,1.33-2.05,1.71h0Z"/></g></svg>