<?xml version="1.0" encoding="UTF-8"?><svg id="Layer_2" xmlns="http://www.w3.org/2000/svg" viewBox="0 0 63.43 63.43"><defs><style>.cls-1{fill:#facf2e;}.cls-1,.cls-2,.cls-3{stroke-width:0px;}.cls-2{fill:#000;}.cls-4{stroke:#231f20;stroke-width:2px;}.cls-4,.cls-5{fill:#fff;stroke-miterlimit:10;}.cls-5{stroke:#1a87c5;stroke-width:.45px;}.cls-3{fill:#1a87c5;}</style></defs><g id="Layer_1-2"><circle class="cls-4" cx="31.71" cy="31.71" r="30.71"/><path class="cls-5" d="M26.68,45.37s-.62.06-.95-.74.27-2.63-.75-4.35-5.97-7.95-3.98-13.11c1.99-5.16,5.8-8.81,11.82-8.44s9.03,5.05,9.73,8.11c.7,3.06.81,6.29-1.88,9.78-2.69,3.49-2.74,7.2-2.74,7.2,0,0,.21,1.67-1.4,2.04s-8.48.52-9.85-.49Z"/><path class="cls-1" d="M28.08,44.93s-.57.06-.86-.67.24-2.38-.68-3.94-5.4-7.19-3.6-11.86,5.25-7.97,10.69-7.63,8.17,4.57,8.8,7.34.73,5.69-1.7,8.85-2.48,6.51-2.48,6.51c0,0,.19,1.51-1.26,1.85s-7.67.47-8.91-.45Z"/><path class="cls-3" d="M27.44,48.27c2.7,0,5.4,0,8.1,0,.72,0,.72-1.11,0-1.11-2.7-.01-5.4-.01-8.1,0-.72,0-.72,1.12,0,1.11h0Z"/><path class="cls-3" d="M28.2,50.06c2.19,0,4.39,0,6.58,0,.65,0,.65-1,0-1.01-2.19-.01-4.39-.01-6.58,0-.65,0-.65,1.01,0,1.01h0Z"/><path class="cls-3" d="M29.08,52.14c1.61,0,3.21,0,4.82,0,.55,0,.55-.86,0-.86-1.61-.01-3.21-.01-4.82,0-.55,0-.55.86,0,.86h0Z"/><path class="cls-3" d="M29.89,54.22c1.07,0,2.14,0,3.21,0,.45,0,.45-.7,0-.7-1.07-.01-2.14-.01-3.21,0-.45,0-.45.71,0,.7h0Z"/><path class="cls-2" d="M31.45,45.72c0-2.67.08-5.35.01-8.02-.03-1.1-.41-1.87-1.09-2.71-.82-1.01-1.55-2.07-2.19-3.2l-.67.87c1.01.32,2.01.64,3.02.95.31.1.64-.12.73-.42.24-.8.67-1.43,1.3-1.97l-.99-.26c.26.72.64,1.32,1.22,1.83.23.2.62.26.84,0,.72-.85,1.6-1.4,2.68-1.65l-.75-.57c.14,1.33-.66,2.54-1.13,3.73s-.85,2.47-1.12,3.75c-.53,2.48-.66,5.03-.41,7.55.08.75,1.27.76,1.19,0-.26-2.6-.12-5.22.48-7.76.29-1.25.69-2.47,1.18-3.65s1.14-2.3,1-3.62c-.04-.39-.35-.67-.75-.57-1.26.29-2.37.96-3.21,1.96h.84c-.42-.37-.72-.77-.91-1.3-.16-.44-.64-.56-.99-.26-.78.67-1.31,1.51-1.6,2.5l.73-.42c-1.01-.32-2.01-.64-3.02-.95-.51-.16-.92.44-.67.87.55.96,1.15,1.89,1.83,2.76.35.45.77.88,1.04,1.38.28.54.25,1.13.24,1.72,0,2.49,0,4.98-.01,7.47,0,.77,1.19.77,1.19,0h0Z"/><path class="cls-1" d="M30.67,6.92c.06,2.99.04,5.99-.05,8.98-.01.36.55.36.56,0,.09-2.99.11-5.98.05-8.98,0-.36-.57-.36-.56,0h0Z"/><path class="cls-1" d="M38.79,11.28c-.5,1.74-1.24,3.39-2.2,4.91-.19.31.29.59.49.28.99-1.56,1.75-3.27,2.26-5.04.1-.35-.44-.5-.54-.15h0Z"/><path class="cls-1" d="M41.87,19.37c1.94-1.98,4.09-3.72,6.43-5.2.31-.19.02-.68-.28-.49-2.38,1.5-4.58,3.28-6.55,5.29-.25.26.14.66.4.4h0Z"/><path class="cls-1" d="M44.45,24.74c1.93-.31,3.8-.88,5.57-1.68.33-.15.04-.64-.28-.49-1.73.78-3.56,1.33-5.44,1.62-.36.06-.21.6.15.54h0Z"/><path class="cls-1" d="M45.15,30.46c4.1.03,8.2.03,12.3-.02.36,0,.36-.57,0-.56-4.1.05-8.2.05-12.3.02-.36,0-.36.56,0,.56h0Z"/><path class="cls-1" d="M44.6,35.59c.89-.06,1.78.15,2.55.61.19.11.37.24.53.38s.32.36.54.43c.23.07.48-.08.48-.33,0-.22-.2-.43-.43-.34-.33.13-.19.68.15.54h.03c-.07-.02-.14-.03-.22-.04l-.09-.15.04-.14.06-.05.14-.04s-.15-.15-.16-.16c-.06-.05-.12-.11-.18-.16-.14-.11-.28-.22-.42-.31-.3-.2-.62-.36-.95-.49-.65-.25-1.36-.36-2.06-.31-.36.02-.36.59,0,.56h0Z"/><path class="cls-1" d="M40.44,40.64c1.52,1.83,3.18,3.54,4.97,5.12.27.24.67-.16.4-.4-1.78-1.58-3.44-3.29-4.97-5.12-.23-.28-.63.12-.4.4h0Z"/><path class="cls-1" d="M22.09,10.47c.14,1.36.35,2.72.62,4.06.22,1.08.53,2.17,1.28,3.01.24.27.64-.13.4-.4-.71-.8-.96-1.87-1.16-2.9-.25-1.25-.44-2.51-.58-3.78-.04-.36-.6-.36-.56,0h0Z"/><path class="cls-1" d="M16.45,16.18c1.86.86,3.55,2.03,5.01,3.46.26.25.66-.14.4-.4-1.49-1.47-3.22-2.67-5.12-3.55-.33-.15-.61.33-.28.49h0Z"/><path class="cls-1" d="M10.95,21.55c2.93.4,5.79,1.14,8.54,2.22.34.13.48-.41.15-.54-2.75-1.07-5.62-1.82-8.54-2.22-.35-.05-.51.49-.15.54h0Z"/><path class="cls-1" d="M8.58,28.83c2.81-.03,5.61-.06,8.42-.09.36,0,.36-.57,0-.56-2.81.03-5.61.06-8.42.09-.36,0-.36.57,0,.56h0Z"/><path class="cls-1" d="M13.63,37.13c1.25-1.4,2.69-2.61,4.29-3.58.31-.19.03-.68-.28-.49-1.64,1-3.13,2.23-4.41,3.67-.24.27.16.67.4.4h0Z"/><path class="cls-1" d="M17.31,42.9c.3-1.79,1.2-3.43,2.54-4.66.27-.24-.13-.64-.4-.4-1.41,1.28-2.37,3.03-2.69,4.91-.06.35.48.51.54.15h0Z"/><path class="cls-1" d="M21.23,45.36c.15-1.12.6-2.22,1.3-3.11.09-.12.12-.28,0-.4-.1-.1-.3-.12-.4,0-.8,1.03-1.29,2.22-1.46,3.51-.02.15.14.28.28.28.17,0,.26-.13.28-.28h0Z"/></g></svg>