<?xml version="1.0" encoding="UTF-8"?><svg id="Layer_2" xmlns="http://www.w3.org/2000/svg" viewBox="0 0 63.43 63.43"><defs><style>.cls-1{fill:#231f20;}.cls-1,.cls-2{stroke-width:0px;}.cls-2{fill:#28b34b;}.cls-3{fill:#fff;stroke:#231f20;stroke-miterlimit:10;stroke-width:2px;}</style></defs><g id="Layer_1-2"><circle class="cls-3" cx="31.71" cy="31.71" r="30.71"/><path class="cls-2" d="M10.94,23.61c4.15.33,8.25-1.54,11.39-4.28s5.46-6.28,7.6-9.85c4.22,7.78,13.03,12.84,21.88,12.57-1.22,11.27-6.86,21.99-15.47,29.37-1.36,1.17-2.9,2.3-4.68,2.49-3.1.33-5.7-2.18-7.72-4.55-6.61-7.74-12.65-16.56-14.04-26.64"/><path class="cls-1" d="M10.4,24.62c9.85.61,16.36-7.38,20.94-15.01l-2.79.51c4.58,8.26,13.74,13.15,23.1,12.95l-1.35-.87c-1.07,9.52-5.21,18.59-11.77,25.58-1.59,1.7-3.43,3.74-5.56,4.76-2.38,1.14-4.71-.69-6.32-2.33-3.47-3.53-6.54-7.73-9.14-11.93-3.03-4.89-5.29-10.23-6.12-15.95-.18-1.26-3.18-.53-2.98.8.8,5.54,2.96,10.73,5.82,15.52,1.47,2.47,3.13,4.84,4.89,7.12,1.67,2.16,3.37,4.41,5.37,6.27,1.83,1.71,4.05,3.06,6.64,2.92,2.81-.15,5.03-1.87,7.05-3.67,3.91-3.48,7.2-7.68,9.72-12.26,2.9-5.28,4.75-11.12,5.43-17.1.08-.75-.81-.89-1.35-.87-8.5.19-16.59-4.84-20.66-12.2-.53-.95-2.38-.17-2.79.51-3.66,6.1-8.96,13.75-17.04,13.25-.67-.04-1.65.21-1.95.88s.25,1.1.88,1.14h0Z"/><path class="cls-1" d="M20.55,36.58c2.58,1.03,4.89,2.63,6.7,4.74.43.5,1.57.18,2.09.06.59-.14,2.08-.42,2.34-1.08,2.54-6.3,6.47-11.98,11.52-16.52.73-.65-.66-.63-1.02-.59-.94.1-2.27.37-3.01,1.03-5.19,4.67-9.29,10.44-11.9,16.92l4.44-1.02c-1.9-2.21-4.23-3.92-6.94-5.01-.85-.34-2.04.04-2.86.33-.16.06-1.99.89-1.37,1.14h0Z"/></g></svg>